<?xml version="1.0" encoding="utf-8"?>
<!-- Generator: Adobe Illustrator 16.0.0, SVG Export Plug-In . SVG Version: 6.00 Build 0)  -->
<!DOCTYPE svg PUBLIC "-//W3C//DTD SVG 1.1//EN" "http://www.w3.org/Graphics/SVG/1.1/DTD/svg11.dtd">
<svg version="1.1" id="Layer_1" xmlns="http://www.w3.org/2000/svg" xmlns:xlink="http://www.w3.org/1999/xlink" x="0px" y="0px"
	 width="200px" height="200px" viewBox="0 0 200 200" enable-background="new 0 0 200 200" xml:space="preserve">
<g>
	
		<linearGradient id="SVGID_1_" gradientUnits="userSpaceOnUse" x1="231.7637" y1="-138.1831" x2="346.9493" y2="-275.456" gradientTransform="matrix(1 0 0 -1 -206 -95)">
		<stop  offset="0" style="stop-color:#B1BEB4"/>
		<stop  offset="0.0866" style="stop-color:#A5B4A9"/>
		<stop  offset="0.513" style="stop-color:#6C8774"/>
		<stop  offset="0.83" style="stop-color:#496B53"/>
		<stop  offset="1" style="stop-color:#3C6047"/>
	</linearGradient>
	<path fill="url(#SVGID_1_)" d="M17.85,119.899c0,9.5,0,16.934,0,18.604c0,6.275,0.889,9.362,8.884,13.801
		c16.731,9.986,57.055,33.91,63.936,38.025c8.737,5.222,11.544,4.65,19.964-0.302c6.057-3.566,40.898-24.261,59.913-35.603
		c11.226-6.56,12.603-9.438,12.603-21.648c0-2.28,0-7.175,0-12.875H17.85V119.899z"/>
	<path fill="#B9DEBE" d="M90.323,7.557c-6.898,3.984-47.179,27.173-63.95,36.852c-8.02,4.302-8.523,7.292-8.523,13.375
		c0,2.774,0,20.039,0,38.383c0,18.345,0,35.515,0,38.292c0,6.082,0.785,9.069,8.804,13.374c16.771,9.675,56.584,32.864,63.483,36.85
		c4.235,2.453,7.515,3.581,9.415,3.555V4C97.649,3.975,94.56,5.106,90.323,7.557z"/>
	<path fill="#B9DEBE" d="M78.866,133.2h-44.18l21.864,30.43c15.289,8.833,29.858,18.166,33.85,20.473
		c4.239,2.453,7.248,4.16,9.148,4.134v-87.162l-21.018-0.956L78.866,133.2z"/>
	
		<linearGradient id="SVGID_2_" gradientUnits="userSpaceOnUse" x1="269.1406" y1="-198.3916" x2="293.7497" y2="-290.2339" gradientTransform="matrix(1 0 0 -1 -206 -95)">
		<stop  offset="0.1179" style="stop-color:#6D6E70"/>
		<stop  offset="0.2579" style="stop-color:#78797A;stop-opacity:0.8413"/>
		<stop  offset="0.5015" style="stop-color:#949596;stop-opacity:0.5651"/>
		<stop  offset="0.8175" style="stop-color:#C2C2C3;stop-opacity:0.2069"/>
		<stop  offset="1" style="stop-color:#E0E0E0;stop-opacity:0"/>
	</linearGradient>
	<path opacity="0.4" fill="url(#SVGID_2_)" enable-background="new    " d="M75.691,133.2h-41.59l22.446,30.43
		c15.289,8.833,29.858,18.166,33.85,20.473c4.239,2.453,7.249,4.16,9.148,4.134v-87.162l-24.19-0.956L75.691,133.2z"/>
	<path fill="#85B795" d="M170.575,42.629c-18.991-10.972-54.278-30.991-60.327-34.437c-4.342-2.476-6.898-3.818-10.698-3.842
		v183.888c3.8-0.025,6.294-1.365,10.636-3.839c6.049-3.447,41.113-23.464,60.105-34.441c11.218-6.342,12.86-9.129,12.86-20.938
		c0-4.75,0-17.948,0-32.676c0-14.729,0-28.023,0-32.775C183.149,51.758,181.789,48.973,170.575,42.629z"/>
	<path fill="#85B795" d="M122.939,133.2l-0.404-33.497l-22.985,1.371v87.162c3.8-0.025,6.294-1.365,10.636-3.841
		c6.049-3.445,40.976-23.464,59.966-34.438c4.028-2.278,6.904-5.262,8.76-7.206l-11.813-9.552H122.939z"/>
	
		<linearGradient id="SVGID_3_" gradientUnits="userSpaceOnUse" x1="325.0625" y1="-185.2236" x2="349.3789" y2="-275.9736" gradientTransform="matrix(1 0 0 -1 -206 -95)">
		<stop  offset="0.4034" style="stop-color:#6D6E70"/>
		<stop  offset="1" style="stop-color:#E0E0E0;stop-opacity:0"/>
	</linearGradient>
	<path opacity="0.4" fill="url(#SVGID_3_)" enable-background="new    " d="M122.939,133.2l-0.404-33.497l-22.985,1.371v87.162
		c3.8-0.025,6.294-1.365,10.636-3.841c6.049-3.445,40.976-23.464,59.966-34.438c4.028-2.278,6.904-5.262,8.76-7.206l-12.719-9.552
		H122.939z"/>
	<polygon fill="#F09A9C" points="56.172,46.188 56.172,96.993 100.097,72.322 	"/>
	
		<linearGradient id="SVGID_4_" gradientUnits="userSpaceOnUse" x1="273.0469" y1="-138.2734" x2="285.7482" y2="-185.6755" gradientTransform="matrix(1 0 0 -1 -206 -95)">
		<stop  offset="0" style="stop-color:#E0E0E0"/>
		<stop  offset="0.6347" style="stop-color:#E2E2E2;stop-opacity:0.3653"/>
		<stop  offset="0.8631" style="stop-color:#E8E8E9;stop-opacity:0.1369"/>
		<stop  offset="1" style="stop-color:#F1F1F2;stop-opacity:0"/>
	</linearGradient>
	<polygon opacity="0.2" fill="url(#SVGID_4_)" enable-background="new    " points="56.172,46.188 56.172,96.993 100.097,72.322 	
		"/>
	<polygon fill="#EF777A" points="34.001,109.453 34.001,135.701 56.172,135.493 56.172,96.993 	"/>
	
		<linearGradient id="SVGID_5_" gradientUnits="userSpaceOnUse" x1="251.0859" y1="-191.9932" x2="251.0859" y2="-230.7017" gradientTransform="matrix(1 0 0 -1 -206 -95)">
		<stop  offset="0" style="stop-color:#E0E0E0;stop-opacity:0"/>
		<stop  offset="0.1749" style="stop-color:#DCDCDC;stop-opacity:0.1749"/>
		<stop  offset="0.3463" style="stop-color:#D0D0D1;stop-opacity:0.3463"/>
		<stop  offset="0.5163" style="stop-color:#BDBDBD;stop-opacity:0.5163"/>
		<stop  offset="0.6854" style="stop-color:#A1A1A2;stop-opacity:0.6854"/>
		<stop  offset="0.8523" style="stop-color:#7E7F80;stop-opacity:0.8523"/>
		<stop  offset="1" style="stop-color:#58595B"/>
	</linearGradient>
	<polygon opacity="0.1" fill="url(#SVGID_5_)" enable-background="new    " points="34.001,109.453 34.001,135.701 56.172,135.493 
		56.172,96.993 	"/>
	<polygon fill="#EF777A" points="100.108,122.386 100.108,72.328 100.097,72.322 56.26,96.944 81.745,111.758 	"/>
	
		<linearGradient id="SVGID_6_" gradientUnits="userSpaceOnUse" x1="262.2598" y1="-192.354" x2="306.1074" y2="-192.354" gradientTransform="matrix(1 0 0 -1 -206 -95)">
		<stop  offset="0.5852" style="stop-color:#F1F1F2;stop-opacity:0"/>
		<stop  offset="1" style="stop-color:#E0E0E0"/>
	</linearGradient>
	<polygon opacity="0.1" fill="url(#SVGID_6_)" enable-background="new    " points="100.108,122.386 100.108,72.328 100.097,72.322 
		56.26,96.944 81.745,111.758 	"/>
	<polygon fill="#E76B6C" points="56.26,96.944 56.172,96.993 56.172,135.493 78.072,135.634 78.072,109.628 81.745,111.758 	"/>
	
		<linearGradient id="SVGID_7_" gradientUnits="userSpaceOnUse" x1="274.958" y1="-191.9438" x2="274.958" y2="-230.6343" gradientTransform="matrix(1 0 0 -1 -206 -95)">
		<stop  offset="0" style="stop-color:#E0E0E0;stop-opacity:0"/>
		<stop  offset="0.1749" style="stop-color:#DCDCDC;stop-opacity:0.1749"/>
		<stop  offset="0.3463" style="stop-color:#D0D0D1;stop-opacity:0.3463"/>
		<stop  offset="0.5163" style="stop-color:#BDBDBD;stop-opacity:0.5163"/>
		<stop  offset="0.6854" style="stop-color:#A1A1A2;stop-opacity:0.6854"/>
		<stop  offset="0.8523" style="stop-color:#7E7F80;stop-opacity:0.8523"/>
		<stop  offset="1" style="stop-color:#58595B"/>
	</linearGradient>
	<polygon opacity="0.1" fill="url(#SVGID_7_)" enable-background="new    " points="56.26,96.944 56.172,96.993 56.172,135.493 
		78.072,135.634 78.072,109.628 81.745,111.758 	"/>
	<polygon fill="#F4BABE" points="56.172,46.188 34.001,59.053 34.001,84.009 56.172,96.898 	"/>
	
		<linearGradient id="SVGID_8_" gradientUnits="userSpaceOnUse" x1="247.1025" y1="-145.2256" x2="259.7802" y2="-192.539" gradientTransform="matrix(1 0 0 -1 -206 -95)">
		<stop  offset="0" style="stop-color:#FFFFFF"/>
		<stop  offset="0.4662" style="stop-color:#F5F5F6;stop-opacity:0.5338"/>
		<stop  offset="1" style="stop-color:#F1F1F2;stop-opacity:0"/>
	</linearGradient>
	<polygon opacity="0.2" fill="url(#SVGID_8_)" enable-background="new    " points="56.172,46.188 34.001,59.053 34.001,84.009 
		56.172,96.898 	"/>
	<polygon fill="#F09A9C" points="34.001,84.009 34.001,109.453 56.172,96.993 56.172,96.898 	"/>
	<polygon fill="#CB6466" points="144.044,46.188 144.044,96.993 100.121,72.322 	"/>
	
		<linearGradient id="SVGID_9_" gradientUnits="userSpaceOnUse" x1="349.9141" y1="-192.0674" x2="327.915" y2="-153.964" gradientTransform="matrix(1 0 0 -1 -206 -95)">
		<stop  offset="0" style="stop-color:#E0E0E0"/>
		<stop  offset="0.201" style="stop-color:#B3B3B3"/>
		<stop  offset="0.5896" style="stop-color:#616161"/>
		<stop  offset="0.8653" style="stop-color:#2E2E2E"/>
		<stop  offset="1" style="stop-color:#1A1A1A"/>
	</linearGradient>
	<polygon opacity="0.1" fill="url(#SVGID_9_)" enable-background="new    " points="144.044,46.188 144.044,96.993 100.121,72.322 	
		"/>
	<polygon fill="#B0585B" points="166.22,109.453 166.22,135.701 144.044,135.493 144.044,96.993 	"/>
	
		<linearGradient id="SVGID_10_" gradientUnits="userSpaceOnUse" x1="361.1309" y1="-191.9932" x2="361.1309" y2="-230.7017" gradientTransform="matrix(1 0 0 -1 -206 -95)">
		<stop  offset="0" style="stop-color:#F1F1F2;stop-opacity:0"/>
		<stop  offset="0.2967" style="stop-color:#AEAEAE;stop-opacity:0.2967"/>
		<stop  offset="0.7829" style="stop-color:#444444;stop-opacity:0.7829"/>
		<stop  offset="1" style="stop-color:#1A1A1A"/>
	</linearGradient>
	<polygon opacity="0.2" fill="url(#SVGID_10_)" enable-background="new    " points="166.22,109.453 166.22,135.701 
		144.044,135.493 144.044,96.993 	"/>
	<polygon fill="#B0585B" points="100.108,122.386 100.108,72.328 100.121,72.322 143.954,96.944 118.472,111.758 	"/>
	
		<linearGradient id="SVGID_11_" gradientUnits="userSpaceOnUse" x1="349.9531" y1="-192.353" x2="306.1064" y2="-192.353" gradientTransform="matrix(1 0 0 -1 -206 -95)">
		<stop  offset="0" style="stop-color:#E0E0E0;stop-opacity:0"/>
		<stop  offset="0.1031" style="stop-color:#D6D6D6;stop-opacity:0.1031"/>
		<stop  offset="0.2782" style="stop-color:#BBBBBB;stop-opacity:0.2782"/>
		<stop  offset="0.5038" style="stop-color:#909090;stop-opacity:0.5038"/>
		<stop  offset="0.7681" style="stop-color:#545454;stop-opacity:0.7681"/>
		<stop  offset="1" style="stop-color:#1A1A1A"/>
	</linearGradient>
	<polygon opacity="0.1" fill="url(#SVGID_11_)" enable-background="new    " points="100.108,122.386 100.108,72.328 
		100.121,72.322 143.954,96.944 118.472,111.758 	"/>
	<polygon fill="#7D4249" points="143.954,96.944 144.044,96.993 144.044,135.493 122.146,135.634 122.146,109.628 118.472,111.758 	
		"/>
	
		<linearGradient id="SVGID_12_" gradientUnits="userSpaceOnUse" x1="350.043" y1="-211.2881" x2="324.4707" y2="-211.2881" gradientTransform="matrix(1 0 0 -1 -206 -95)">
		<stop  offset="0" style="stop-color:#E0E0E0;stop-opacity:0"/>
		<stop  offset="0.1347" style="stop-color:#DCDCDC;stop-opacity:0.1347"/>
		<stop  offset="0.2769" style="stop-color:#CFCFCF;stop-opacity:0.2769"/>
		<stop  offset="0.4226" style="stop-color:#BABABA;stop-opacity:0.4226"/>
		<stop  offset="0.5707" style="stop-color:#9C9C9C;stop-opacity:0.5707"/>
		<stop  offset="0.7208" style="stop-color:#767676;stop-opacity:0.7208"/>
		<stop  offset="0.8701" style="stop-color:#484848;stop-opacity:0.8701"/>
		<stop  offset="1" style="stop-color:#1A1A1A"/>
	</linearGradient>
	<polygon opacity="0.2" fill="url(#SVGID_12_)" enable-background="new    " points="143.954,96.944 144.044,96.993 
		144.044,135.493 122.146,135.634 122.146,109.628 118.472,111.758 	"/>
	<polygon fill="#984B4E" points="144.044,46.188 166.22,59.053 166.22,84.009 144.044,96.898 	"/>
	
		<linearGradient id="SVGID_13_" gradientUnits="userSpaceOnUse" x1="366.5537" y1="-182.3667" x2="344.5953" y2="-144.3334" gradientTransform="matrix(1 0 0 -1 -206 -95)">
		<stop  offset="0" style="stop-color:#E0E0E0"/>
		<stop  offset="0.213" style="stop-color:#DDDDDD"/>
		<stop  offset="0.3597" style="stop-color:#D4D4D4"/>
		<stop  offset="0.4865" style="stop-color:#C5C5C5"/>
		<stop  offset="0.6021" style="stop-color:#AFAFAF"/>
		<stop  offset="0.71" style="stop-color:#939393"/>
		<stop  offset="0.8121" style="stop-color:#707070"/>
		<stop  offset="0.908" style="stop-color:#484848"/>
		<stop  offset="1" style="stop-color:#1A1A1A"/>
	</linearGradient>
	<polygon opacity="0.2" fill="url(#SVGID_13_)" enable-background="new    " points="144.044,46.188 166.22,59.053 166.22,84.009 
		144.044,96.898 	"/>
	<polygon fill="#CB6466" points="166.22,84.009 166.22,109.453 144.044,96.993 144.044,96.898 	"/>
</g>
</svg>
